<svg width="24" height="24" viewBox="0 0 24 24" fill="none" xmlns="http://www.w3.org/2000/svg">
<path d="M8.956 16.359L7.46 12.2705C7.38633 12.0892 7.30983 11.8738 7.2305 11.6245C7.15117 11.3752 7.07183 11.106 6.9925 10.817C6.91883 11.106 6.84233 11.378 6.763 11.633C6.68367 11.8823 6.60717 12.1005 6.5335 12.2875L5.046 16.359H8.956ZM12.9935 21H11.2255C11.0272 21 10.8657 20.9518 10.741 20.8555C10.6163 20.7535 10.5228 20.6288 10.4605 20.4815L9.5425 17.974H4.451L3.533 20.4815C3.48767 20.6118 3.39983 20.7308 3.2695 20.8385C3.13917 20.9462 2.97767 21 2.785 21H1L5.8365 8.70898H8.1655L12.9935 21Z" fill="#00ABB6"/>
<path d="M16.5607 21H14.2657V11.709H16.5607V21Z" fill="#00ABB6"/>
<path fill-rule="evenodd" clip-rule="evenodd" d="M19.0935 4C19.396 4 19.6606 4.15274 19.738 4.37205L20.5241 6.59946L22.76 7.56691C22.9664 7.6562 23.0935 7.82131 23.0935 8C23.0935 8.17869 22.9664 8.3438 22.76 8.43309L20.5241 9.40053L19.738 11.6279C19.6606 11.8473 19.396 12 19.0935 12C18.791 12 18.5264 11.8473 18.449 11.6279L17.6629 9.40053L15.427 8.43309C15.2207 8.34379 15.0935 8.17869 15.0935 8C15.0935 7.82131 15.2207 7.6562 15.427 7.56691L17.6629 6.59947L18.449 4.37205C18.5264 4.15274 18.791 4 19.0935 4Z" fill="#00ABB6"/>
</svg>
