<svg width="25" height="25" viewBox="0 0 25 25" fill="none" xmlns="http://www.w3.org/2000/svg">
<path d="M9.5 22.5H15.5C20.5 22.5 22.5 20.5 22.5 15.5V9.5C22.5 4.5 20.5 2.5 15.5 2.5H9.5C4.5 2.5 2.5 4.5 2.5 9.5V15.5C2.5 20.5 4.5 22.5 9.5 22.5Z" stroke="#4BA1FF" stroke-width="1.5" stroke-linecap="round" stroke-linejoin="round"/>
<path d="M18.5 8.25V15C18.5 13.9 17.6 13 16.5 13H8.5C7.4 13 6.5 13.9 6.5 15V8.25C6.5 7.15 7.4 6.25 8.5 6.25H16.5C17.6 6.25 18.5 7.15 18.5 8.25Z" stroke="#4BA1FF" stroke-width="1.5" stroke-linecap="round" stroke-linejoin="round"/>
<path d="M19.5 16.25H18.5" stroke="#4BA1FF" stroke-width="1.5" stroke-linecap="round" stroke-linejoin="round"/>
<path d="M6.5 16.25H5.5" stroke="#4BA1FF" stroke-width="1.5" stroke-linecap="round" stroke-linejoin="round"/>
<path d="M18.5 14.5V11.5C18.5 10.4 17.6 9.5 16.5 9.5H8.5C7.4 9.5 6.5 10.4 6.5 11.5V14.5" stroke="#4BA1FF" stroke-width="1.5" stroke-linecap="round" stroke-linejoin="round"/>
<path d="M18.5 15V16.25H15C15 17.63 13.88 18.75 12.5 18.75C11.12 18.75 10 17.63 10 16.25H6.5V15C6.5 13.9 7.4 13 8.5 13H16.5C17.6 13 18.5 13.9 18.5 15Z" stroke="#4BA1FF" stroke-width="1.5" stroke-linecap="round" stroke-linejoin="round"/>
</svg>
