<svg width="24" height="25" viewBox="0 0 24 25" fill="none" xmlns="http://www.w3.org/2000/svg">
<path d="M6.76002 22.5H17.24C20 22.5 21.1 20.81 21.23 18.75L21.75 10.49C21.89 8.33 20.17 6.5 18 6.5C17.39 6.5 16.83 6.15 16.55 5.61L15.83 4.16C15.37 3.25 14.17 2.5 13.15 2.5H10.86C9.83001 2.5 8.63001 3.25 8.17001 4.16L7.45001 5.61C7.17001 6.15 6.61002 6.5 6.00002 6.5C3.83001 6.5 2.11001 8.33 2.25001 10.49L2.77001 18.75C2.89001 20.81 4.00002 22.5 6.76002 22.5Z" stroke="#FFA487" stroke-width="1.5" stroke-linecap="round" stroke-linejoin="round"/>
<path d="M10.5 8.5H13.5" stroke="#FFA487" stroke-width="1.5" stroke-linecap="round" stroke-linejoin="round"/>
<path d="M12 18.5C13.79 18.5 15.25 17.04 15.25 15.25C15.25 13.46 13.79 12 12 12C10.21 12 8.75 13.46 8.75 15.25C8.75 17.04 10.21 18.5 12 18.5Z" stroke="#FFA487" stroke-width="1.5" stroke-linecap="round" stroke-linejoin="round"/>
</svg>
