<svg width="46" height="46" viewBox="0 0 46 46" fill="none" xmlns="http://www.w3.org/2000/svg">
<path d="M13.175 41.75H32.825C38 41.75 40.0625 38.5812 40.3063 34.7188L41.2813 19.2312C41.5438 15.1812 38.3188 11.75 34.25 11.75C33.1063 11.75 32.0563 11.0938 31.5313 10.0813L30.1813 7.3625C29.3188 5.65625 27.0688 4.25 25.1563 4.25H20.8625C18.9313 4.25 16.6813 5.65625 15.8188 7.3625L14.4688 10.0813C13.9438 11.0938 12.8938 11.75 11.75 11.75C7.68126 11.75 4.45626 15.1812 4.71876 19.2312L5.69376 34.7188C5.91876 38.5812 8.00001 41.75 13.175 41.75Z" stroke="#4B4B4B" stroke-width="1.5" stroke-linecap="round" stroke-linejoin="round"/>
<path d="M20.1875 15.5H25.8125" stroke="#4B4B4B" stroke-width="1.5" stroke-linecap="round" stroke-linejoin="round"/>
<path d="M23 34.25C26.3562 34.25 29.0938 31.5125 29.0938 28.1562C29.0938 24.8 26.3562 22.0625 23 22.0625C19.6438 22.0625 16.9062 24.8 16.9062 28.1562C16.9062 31.5125 19.6438 34.25 23 34.25Z" stroke="#4B4B4B" stroke-width="1.5" stroke-linecap="round" stroke-linejoin="round"/>
</svg>