<svg width="21" height="21" viewBox="0 0 21 21" fill="none" xmlns="http://www.w3.org/2000/svg">
<path d="M10.5 12.5999C11.6598 12.5999 12.6 11.6597 12.6 10.4999C12.6 9.34011 11.6598 8.3999 10.5 8.3999C9.34021 8.3999 8.40001 9.34011 8.40001 10.4999C8.40001 11.6597 9.34021 12.5999 10.5 12.5999Z" fill="#FFA487"/>
<path fill-rule="evenodd" clip-rule="evenodd" d="M0.480652 10.4999C1.81862 6.23996 5.79843 3.1499 10.5 3.1499C15.2015 3.1499 19.1813 6.23993 20.5193 10.4999C19.1813 14.7598 15.2015 17.8499 10.4999 17.8499C5.79844 17.8499 1.81864 14.7599 0.480652 10.4999ZM14.7 10.4999C14.7 12.8195 12.8196 14.6999 10.5 14.6999C8.18041 14.6999 6.30001 12.8195 6.30001 10.4999C6.30001 8.18031 8.18041 6.2999 10.5 6.2999C12.8196 6.2999 14.7 8.18031 14.7 10.4999Z" fill="#FFA487"/>
</svg>
