<svg width="29" height="28" viewBox="0 0 29 28" fill="none" xmlns="http://www.w3.org/2000/svg">
<path d="M17.965 26.5416H10.965C4.63001 26.5416 1.92334 23.8349 1.92334 17.4999V10.4999C1.92334 4.16492 4.63001 1.45825 10.965 1.45825H17.965C24.3 1.45825 27.0067 4.16492 27.0067 10.4999V17.4999C27.0067 23.8349 24.3117 26.5416 17.965 26.5416ZM10.965 3.20825C5.58667 3.20825 3.67334 5.12159 3.67334 10.4999V17.4999C3.67334 22.8783 5.58667 24.7916 10.965 24.7916H17.965C23.3433 24.7916 25.2567 22.8783 25.2567 17.4999V10.4999C25.2567 5.12159 23.3433 3.20825 17.965 3.20825H10.965Z" fill="#8E8E8E"/>
<path d="M13.8583 21.0699C13.5783 21.0699 12.9017 20.9649 12.505 19.9499L11.175 16.5899C10.9883 16.1116 10.3233 15.6683 9.82166 15.6683L2.82166 15.6916C2.34332 15.6916 1.94666 15.3066 1.94666 14.8166C1.94666 14.3383 2.33166 13.9416 2.82166 13.9416L9.82166 13.9183H9.83332C11.0583 13.9183 12.365 14.8049 12.82 15.9483L13.8817 18.6316L16.285 12.5416C16.6467 11.6316 17.2883 11.5033 17.5567 11.4799C17.825 11.4683 18.4783 11.5266 18.9333 12.3899L20.1467 14.6883C20.3567 15.0849 20.9867 15.4699 21.4417 15.4699H26.1783C26.6567 15.4699 27.0533 15.8666 27.0533 16.3449C27.0533 16.8233 26.6567 17.2199 26.1783 17.2199H21.4417C20.3333 17.2199 19.12 16.4849 18.6067 15.5049L17.6967 13.7783L15.2467 19.9499C14.815 20.9533 14.1267 21.0699 13.8583 21.0699Z" fill="#8E8E8E"/>
</svg>
