<svg width="29" height="28" viewBox="0 0 29 28" fill="none" xmlns="http://www.w3.org/2000/svg">
<path d="M24.8017 9.34494L17.16 3.23161C15.6667 2.04161 13.3333 2.02994 11.8517 3.21994L4.21 9.34494C3.11333 10.2199 2.44833 11.9699 2.68166 13.3466L4.15166 22.1433C4.49 24.1149 6.32166 25.6666 8.31666 25.6666H20.6833C22.655 25.6666 24.5217 24.0799 24.86 22.1316L26.33 13.3349C26.54 11.9699 25.875 10.2199 24.8017 9.34494ZM15.375 20.9999C15.375 21.4783 14.9783 21.8749 14.5 21.8749C14.0217 21.8749 13.625 21.4783 13.625 20.9999V17.4999C13.625 17.0216 14.0217 16.6249 14.5 16.6249C14.9783 16.6249 15.375 17.0216 15.375 17.4999V20.9999Z" fill="#00ABB6"/>
</svg>
