<svg width="25" height="25" viewBox="0 0 25 25" fill="none" xmlns="http://www.w3.org/2000/svg">
<path d="M12.5 8.39001L11.43 10.25C11.19 10.66 11.39 11 11.86 11H13.13C13.61 11 13.8 11.34 13.56 11.75L12.5 13.61" stroke="#47CFD6" stroke-width="1.5" stroke-linecap="round" stroke-linejoin="round"/>
<path d="M8.79999 18.5401V17.3801C6.49999 15.9901 4.60999 13.2801 4.60999 10.4001C4.60999 5.45005 9.15999 1.57005 14.3 2.69005C16.56 3.19005 18.54 4.69005 19.57 6.76005C21.66 10.9601 19.46 15.4201 16.23 17.3701V18.5301C16.23 18.8201 16.34 19.4901 15.27 19.4901H9.75999C8.65999 19.5001 8.79999 19.0701 8.79999 18.5401Z" stroke="#47CFD6" stroke-width="1.5" stroke-linecap="round" stroke-linejoin="round"/>
<path d="M9 22.5C11.29 21.85 13.71 21.85 16 22.5" stroke="#47CFD6" stroke-width="1.5" stroke-linecap="round" stroke-linejoin="round"/>
</svg>
