<svg width="24" height="24" viewBox="0 0 24 24" fill="none" xmlns="http://www.w3.org/2000/svg">
<path d="M14.77 19.7498H9.26C8.82 19.7498 8.25999 19.6998 7.89 19.3198C7.52999 18.9498 7.54 18.4898 7.55 18.1798V17.2898C5.03 15.6098 3.37 12.6898 3.37 9.9098C3.37 7.2798 4.55 4.8198 6.6 3.1698C8.64999 1.5198 11.34 0.899803 13.97 1.4798C16.47 2.0298 18.63 3.6998 19.75 5.9498C21.92 10.3198 19.83 15.0498 16.49 17.2998V18.0498C16.5 18.3398 16.51 18.8698 16.1 19.2898C15.79 19.5898 15.35 19.7498 14.77 19.7498ZM9.04 18.2398C9.09 18.2398 9.16 18.2498 9.25 18.2498H14.77C14.87 18.2498 14.94 18.2398 14.98 18.2298C14.98 18.1998 14.98 18.1598 14.98 18.1298V16.8698C14.98 16.6098 15.12 16.3598 15.34 16.2298C18.3 14.4398 20.26 10.3498 18.39 6.5998C17.47 4.7498 15.69 3.3798 13.63 2.9298C11.45 2.4498 9.22 2.9598 7.52 4.3298C5.82 5.6998 4.85 7.7298 4.85 9.9098C4.85 12.6898 6.77 15.0898 8.67 16.2398C8.9 16.3798 9.02999 16.6198 9.02999 16.8798V18.2298C9.04 18.2298 9.04 18.2298 9.04 18.2398Z" fill="#4B4B4B"/>
<path d="M15.5 22.7499C15.43 22.7499 15.36 22.7399 15.29 22.7199C13.13 22.0999 10.86 22.0999 8.70001 22.7199C8.30001 22.8299 7.89001 22.5999 7.77001 22.1999C7.65001 21.7999 7.89001 21.3899 8.29001 21.2699C10.71 20.5799 13.28 20.5799 15.7 21.2699C16.1 21.3799 16.33 21.7999 16.22 22.1999C16.13 22.5399 15.83 22.7499 15.5 22.7499Z" fill="#4B4B4B"/>
</svg>
