<svg width="29" height="28" viewBox="0 0 29 28" fill="none" xmlns="http://www.w3.org/2000/svg">
<path d="M14.6862 13.5566C14.6512 13.5566 14.6279 13.5566 14.5929 13.5566C14.5345 13.5449 14.4529 13.5449 14.3829 13.5566C10.9995 13.4516 8.44452 10.7916 8.44452 7.51325C8.44452 4.17659 11.1629 1.45825 14.4995 1.45825C17.8362 1.45825 20.5545 4.17659 20.5545 7.51325C20.5429 10.7916 17.9762 13.4516 14.7212 13.5566C14.7095 13.5566 14.6979 13.5566 14.6862 13.5566ZM14.4995 3.20825C12.1312 3.20825 10.1945 5.14492 10.1945 7.51325C10.1945 9.84659 12.0145 11.7249 14.3362 11.8066C14.3945 11.7949 14.5579 11.7949 14.7095 11.8066C16.9962 11.7016 18.7929 9.82325 18.8045 7.51325C18.8045 5.14492 16.8679 3.20825 14.4995 3.20825Z" fill="#8E8E8E"/>
<path d="M14.6979 26.3084C12.4112 26.3084 10.1129 25.7251 8.37454 24.5584C6.75288 23.4851 5.86621 22.0151 5.86621 20.4167C5.86621 18.8184 6.75288 17.3367 8.37454 16.2517C11.8745 13.9301 17.5445 13.9301 21.0212 16.2517C22.6312 17.3251 23.5295 18.7951 23.5295 20.3934C23.5295 21.9917 22.6429 23.4734 21.0212 24.5584C19.2712 25.7251 16.9845 26.3084 14.6979 26.3084ZM9.34288 17.7217C8.22288 18.4684 7.61621 19.4251 7.61621 20.4284C7.61621 21.4201 8.23454 22.3767 9.34288 23.1117C12.2479 25.0601 17.1479 25.0601 20.0529 23.1117C21.1729 22.3651 21.7795 21.4084 21.7795 20.4051C21.7795 19.4134 21.1612 18.4567 20.0529 17.7217C17.1479 15.7851 12.2479 15.7851 9.34288 17.7217Z" fill="#8E8E8E"/>
</svg>
