<svg width="28" height="28" viewBox="0 0 28 28" fill="none" xmlns="http://www.w3.org/2000/svg">
<path d="M10.8049 12.7287C10.6924 12.7175 10.5574 12.7175 10.4336 12.7287C7.75613 12.6387 5.62988 10.445 5.62988 7.745C5.62988 4.98875 7.85738 2.75 10.6249 2.75C13.3811 2.75 15.6199 4.98875 15.6199 7.745C15.6086 10.445 13.4824 12.6387 10.8049 12.7287Z" stroke="#8E8E8E" stroke-width="1.5" stroke-linecap="round" stroke-linejoin="round"/>
<path d="M18.9612 5C21.1437 5 22.8987 6.76625 22.8987 8.9375C22.8987 11.0637 21.2112 12.7962 19.1074 12.875C19.0174 12.8638 18.9162 12.8638 18.8149 12.875" stroke="#8E8E8E" stroke-width="1.5" stroke-linecap="round" stroke-linejoin="round"/>
<path d="M5.18006 16.88C2.45756 18.7025 2.45756 21.6725 5.18006 23.4837C8.27381 25.5537 13.3476 25.5537 16.4413 23.4837C19.1638 21.6612 19.1638 18.6913 16.4413 16.88C13.3588 14.8213 8.28506 14.8213 5.18006 16.88Z" stroke="#8E8E8E" stroke-width="1.5" stroke-linecap="round" stroke-linejoin="round"/>
<path d="M21.1323 23C21.9423 22.8312 22.7073 22.505 23.3373 22.0212C25.0923 20.705 25.0923 18.5337 23.3373 17.2175C22.7186 16.745 21.9648 16.43 21.1661 16.25" stroke="#8E8E8E" stroke-width="1.5" stroke-linecap="round" stroke-linejoin="round"/>
</svg>
