<svg width="26" height="26" viewBox="0 0 26 26" fill="none" xmlns="http://www.w3.org/2000/svg">
<path fill-rule="evenodd" clip-rule="evenodd" d="M6.50001 2.6001C7.21798 2.6001 7.80001 3.18213 7.80001 3.9001V5.2001H9.10001C9.81798 5.2001 10.4 5.78213 10.4 6.5001C10.4 7.21807 9.81798 7.8001 9.10001 7.8001H7.80001V9.1001C7.80001 9.81807 7.21798 10.4001 6.50001 10.4001C5.78204 10.4001 5.20001 9.81807 5.20001 9.1001V7.8001H3.90001C3.18204 7.8001 2.60001 7.21807 2.60001 6.5001C2.60001 5.78213 3.18204 5.2001 3.90001 5.2001H5.20001V3.9001C5.20001 3.18213 5.78204 2.6001 6.50001 2.6001ZM6.50001 15.6001C7.21798 15.6001 7.80001 16.1821 7.80001 16.9001V18.2001H9.10001C9.81798 18.2001 10.4 18.7821 10.4 19.5001C10.4 20.2181 9.81798 20.8001 9.10001 20.8001H7.80001V22.1001C7.80001 22.8181 7.21798 23.4001 6.50001 23.4001C5.78204 23.4001 5.20001 22.8181 5.20001 22.1001V20.8001H3.90001C3.18204 20.8001 2.60001 20.2181 2.60001 19.5001C2.60001 18.7821 3.18204 18.2001 3.90001 18.2001H5.20001V16.9001C5.20001 16.1821 5.78204 15.6001 6.50001 15.6001Z" fill="#FFA487"/>
<path fill-rule="evenodd" clip-rule="evenodd" d="M15.5999 2.6001C16.1898 2.6001 16.7057 2.99723 16.8567 3.56744L18.3896 9.35871L22.7496 11.8741C23.152 12.1062 23.3999 12.5355 23.3999 13.0001C23.3999 13.4647 23.152 13.894 22.7496 14.1261L18.3896 16.6415L16.8567 22.4328C16.7057 23.003 16.1898 23.4001 15.5999 23.4001C15.0101 23.4001 14.4942 23.003 14.3432 22.4328L12.8102 16.6415L8.45036 14.1261C8.04794 13.894 7.80001 13.4647 7.80001 13.0001C7.80001 12.5355 8.04794 12.1062 8.45036 11.8741L12.8102 9.35871L14.3432 3.56744C14.4942 2.99723 15.0101 2.6001 15.5999 2.6001Z" fill="#FFA487"/>
</svg>
