<svg width="26" height="26" viewBox="0 0 26 26" fill="none" xmlns="http://www.w3.org/2000/svg">
<path d="M13 2.6001C13.718 2.6001 14.3 3.18213 14.3 3.9001V5.2001C14.3 5.91807 13.718 6.5001 13 6.5001C12.282 6.5001 11.7 5.91807 11.7 5.2001V3.9001C11.7 3.18213 12.282 2.6001 13 2.6001Z" fill="#FFA487"/>
<path d="M18.2 13.0001C18.2 15.872 15.8719 18.2001 13 18.2001C10.1281 18.2001 7.80001 15.872 7.80001 13.0001C7.80001 10.1282 10.1281 7.8001 13 7.8001C15.8719 7.8001 18.2 10.1282 18.2 13.0001Z" fill="#FFA487"/>
<path d="M17.5963 19.4347L18.5155 20.354C19.0232 20.8616 19.8463 20.8616 20.354 20.354C20.8617 19.8463 20.8617 19.0232 20.354 18.5155L19.4347 17.5962C18.9271 17.0886 18.104 17.0886 17.5963 17.5962C17.0886 18.1039 17.0886 18.927 17.5963 19.4347Z" fill="#FFA487"/>
<path d="M20.3539 5.64612C20.8615 6.1538 20.8615 6.97691 20.3539 7.4846L19.4346 8.40384C18.9269 8.91152 18.1038 8.91152 17.5961 8.40384C17.0885 7.89615 17.0885 7.07304 17.5961 6.56536L18.5154 5.64612C19.0231 5.13844 19.8462 5.13844 20.3539 5.64612Z" fill="#FFA487"/>
<path d="M22.1 14.3001C22.818 14.3001 23.4 13.7181 23.4 13.0001C23.4 12.2821 22.818 11.7001 22.1 11.7001H20.8C20.082 11.7001 19.5 12.2821 19.5 13.0001C19.5 13.7181 20.082 14.3001 20.8 14.3001H22.1Z" fill="#FFA487"/>
<path d="M13 19.5001C13.718 19.5001 14.3 20.0821 14.3 20.8001V22.1001C14.3 22.8181 13.718 23.4001 13 23.4001C12.282 23.4001 11.7 22.8181 11.7 22.1001V20.8001C11.7 20.0821 12.282 19.5001 13 19.5001Z" fill="#FFA487"/>
<path d="M6.56541 8.40386C7.07309 8.91154 7.89621 8.91154 8.40389 8.40386C8.91157 7.89618 8.91157 7.07306 8.40389 6.56538L7.48465 5.64614C6.97697 5.13846 6.15385 5.13846 5.64617 5.64614C5.13849 6.15382 5.13849 6.97694 5.64617 7.48462L6.56541 8.40386Z" fill="#FFA487"/>
<path d="M8.40377 19.4347L7.48453 20.3539C6.97685 20.8616 6.15373 20.8616 5.64605 20.3539C5.13837 19.8463 5.13837 19.0231 5.64605 18.5155L6.56529 17.5962C7.07297 17.0885 7.89608 17.0885 8.40377 17.5962C8.91145 18.1039 8.91145 18.927 8.40377 19.4347Z" fill="#FFA487"/>
<path d="M5.20001 14.3001C5.91798 14.3001 6.50001 13.7181 6.50001 13.0001C6.50001 12.2821 5.91798 11.7001 5.20001 11.7001H3.90001C3.18204 11.7001 2.60001 12.2821 2.60001 13.0001C2.60001 13.7181 3.18204 14.3001 3.90001 14.3001H5.20001Z" fill="#FFA487"/>
</svg>
